<mxfile host="app.diagrams.net" modified="2021-04-14T16:12:19.306Z" agent="5.0 (Windows NT 10.0; Win64; x64) AppleWebKit/537.36 (KHTML, like Gecko) Chrome/89.0.4389.82 Safari/537.36" etag="5KxVWgZBnSMMMfpKpq2O" version="14.5.8" type="github">
  <diagram id="MYMGWsDueuSYhSB4QcHN" name="Page-1">
    <mxGraphModel dx="1422" dy="762" grid="1" gridSize="10" guides="1" tooltips="1" connect="1" arrows="1" fold="1" page="1" pageScale="1" pageWidth="850" pageHeight="1100" math="0" shadow="0">
      <root>
        <mxCell id="0" />
        <mxCell id="1" parent="0" />
        <mxCell id="0VMk5JdVb6VxdRbDzvIt-1" style="edgeStyle=orthogonalEdgeStyle;rounded=0;orthogonalLoop=1;jettySize=auto;html=1;" edge="1" parent="1" source="0VMk5JdVb6VxdRbDzvIt-2" target="0VMk5JdVb6VxdRbDzvIt-39">
          <mxGeometry relative="1" as="geometry" />
        </mxCell>
        <mxCell id="0VMk5JdVb6VxdRbDzvIt-2" value="" style="rounded=1;whiteSpace=wrap;html=1;" vertex="1" parent="1">
          <mxGeometry x="630" y="470" width="190" height="180" as="geometry" />
        </mxCell>
        <mxCell id="0VMk5JdVb6VxdRbDzvIt-3" value="" style="edgeStyle=orthogonalEdgeStyle;rounded=0;orthogonalLoop=1;jettySize=auto;html=1;" edge="1" parent="1" source="0VMk5JdVb6VxdRbDzvIt-4" target="0VMk5JdVb6VxdRbDzvIt-13">
          <mxGeometry relative="1" as="geometry" />
        </mxCell>
        <mxCell id="0VMk5JdVb6VxdRbDzvIt-4" value="User" style="rounded=1;whiteSpace=wrap;html=1;" vertex="1" parent="1">
          <mxGeometry x="50" y="90" width="120" height="60" as="geometry" />
        </mxCell>
        <mxCell id="0VMk5JdVb6VxdRbDzvIt-5" style="edgeStyle=orthogonalEdgeStyle;rounded=0;orthogonalLoop=1;jettySize=auto;html=1;entryX=0.5;entryY=0;entryDx=0;entryDy=0;" edge="1" parent="1" source="0VMk5JdVb6VxdRbDzvIt-6" target="0VMk5JdVb6VxdRbDzvIt-13">
          <mxGeometry relative="1" as="geometry" />
        </mxCell>
        <mxCell id="0VMk5JdVb6VxdRbDzvIt-6" value="User" style="rounded=1;whiteSpace=wrap;html=1;" vertex="1" parent="1">
          <mxGeometry x="50" y="180" width="120" height="60" as="geometry" />
        </mxCell>
        <mxCell id="0VMk5JdVb6VxdRbDzvIt-7" style="edgeStyle=orthogonalEdgeStyle;rounded=0;orthogonalLoop=1;jettySize=auto;html=1;entryX=0.5;entryY=0;entryDx=0;entryDy=0;" edge="1" parent="1" source="0VMk5JdVb6VxdRbDzvIt-8" target="0VMk5JdVb6VxdRbDzvIt-13">
          <mxGeometry relative="1" as="geometry" />
        </mxCell>
        <mxCell id="0VMk5JdVb6VxdRbDzvIt-8" value="User" style="rounded=1;whiteSpace=wrap;html=1;" vertex="1" parent="1">
          <mxGeometry x="50" y="300" width="120" height="60" as="geometry" />
        </mxCell>
        <mxCell id="0VMk5JdVb6VxdRbDzvIt-9" value="..." style="text;html=1;strokeColor=none;fillColor=none;align=center;verticalAlign=middle;whiteSpace=wrap;rounded=0;rotation=-90;" vertex="1" parent="1">
          <mxGeometry x="90" y="260" width="40" height="20" as="geometry" />
        </mxCell>
        <mxCell id="0VMk5JdVb6VxdRbDzvIt-10" style="edgeStyle=orthogonalEdgeStyle;rounded=0;orthogonalLoop=1;jettySize=auto;html=1;entryX=0;entryY=0.5;entryDx=0;entryDy=0;" edge="1" parent="1" source="0VMk5JdVb6VxdRbDzvIt-13" target="0VMk5JdVb6VxdRbDzvIt-15">
          <mxGeometry relative="1" as="geometry" />
        </mxCell>
        <mxCell id="0VMk5JdVb6VxdRbDzvIt-11" style="edgeStyle=orthogonalEdgeStyle;rounded=0;orthogonalLoop=1;jettySize=auto;html=1;entryX=0;entryY=0.5;entryDx=0;entryDy=0;" edge="1" parent="1" source="0VMk5JdVb6VxdRbDzvIt-13" target="0VMk5JdVb6VxdRbDzvIt-17">
          <mxGeometry relative="1" as="geometry" />
        </mxCell>
        <mxCell id="0VMk5JdVb6VxdRbDzvIt-12" style="edgeStyle=orthogonalEdgeStyle;rounded=0;orthogonalLoop=1;jettySize=auto;html=1;entryX=0;entryY=0.5;entryDx=0;entryDy=0;" edge="1" parent="1" source="0VMk5JdVb6VxdRbDzvIt-13" target="0VMk5JdVb6VxdRbDzvIt-19">
          <mxGeometry relative="1" as="geometry" />
        </mxCell>
        <mxCell id="0VMk5JdVb6VxdRbDzvIt-13" value="LB" style="rounded=1;whiteSpace=wrap;html=1;rotation=-90;" vertex="1" parent="1">
          <mxGeometry x="125" y="195" width="270" height="60" as="geometry" />
        </mxCell>
        <mxCell id="0VMk5JdVb6VxdRbDzvIt-14" value="" style="edgeStyle=orthogonalEdgeStyle;rounded=0;orthogonalLoop=1;jettySize=auto;html=1;" edge="1" parent="1" source="0VMk5JdVb6VxdRbDzvIt-15" target="0VMk5JdVb6VxdRbDzvIt-24">
          <mxGeometry relative="1" as="geometry" />
        </mxCell>
        <mxCell id="0VMk5JdVb6VxdRbDzvIt-15" value="Web Server" style="rounded=1;whiteSpace=wrap;html=1;" vertex="1" parent="1">
          <mxGeometry x="340" y="90" width="120" height="60" as="geometry" />
        </mxCell>
        <mxCell id="0VMk5JdVb6VxdRbDzvIt-16" style="edgeStyle=orthogonalEdgeStyle;rounded=0;orthogonalLoop=1;jettySize=auto;html=1;" edge="1" parent="1" source="0VMk5JdVb6VxdRbDzvIt-17" target="0VMk5JdVb6VxdRbDzvIt-24">
          <mxGeometry relative="1" as="geometry" />
        </mxCell>
        <mxCell id="0VMk5JdVb6VxdRbDzvIt-17" value="Web Server" style="rounded=1;whiteSpace=wrap;html=1;" vertex="1" parent="1">
          <mxGeometry x="340" y="180" width="120" height="60" as="geometry" />
        </mxCell>
        <mxCell id="0VMk5JdVb6VxdRbDzvIt-18" style="edgeStyle=orthogonalEdgeStyle;rounded=0;orthogonalLoop=1;jettySize=auto;html=1;entryX=0.5;entryY=0;entryDx=0;entryDy=0;" edge="1" parent="1" source="0VMk5JdVb6VxdRbDzvIt-19" target="0VMk5JdVb6VxdRbDzvIt-24">
          <mxGeometry relative="1" as="geometry" />
        </mxCell>
        <mxCell id="0VMk5JdVb6VxdRbDzvIt-19" value="Web Server" style="rounded=1;whiteSpace=wrap;html=1;" vertex="1" parent="1">
          <mxGeometry x="340" y="300" width="120" height="60" as="geometry" />
        </mxCell>
        <mxCell id="0VMk5JdVb6VxdRbDzvIt-20" value="..." style="text;html=1;strokeColor=none;fillColor=none;align=center;verticalAlign=middle;whiteSpace=wrap;rounded=0;rotation=-90;" vertex="1" parent="1">
          <mxGeometry x="380" y="260" width="40" height="20" as="geometry" />
        </mxCell>
        <mxCell id="0VMk5JdVb6VxdRbDzvIt-21" style="edgeStyle=orthogonalEdgeStyle;rounded=0;orthogonalLoop=1;jettySize=auto;html=1;entryX=0;entryY=0.5;entryDx=0;entryDy=0;" edge="1" parent="1" source="0VMk5JdVb6VxdRbDzvIt-24" target="0VMk5JdVb6VxdRbDzvIt-26">
          <mxGeometry relative="1" as="geometry" />
        </mxCell>
        <mxCell id="0VMk5JdVb6VxdRbDzvIt-22" style="edgeStyle=orthogonalEdgeStyle;rounded=0;orthogonalLoop=1;jettySize=auto;html=1;entryX=0;entryY=0.5;entryDx=0;entryDy=0;" edge="1" parent="1" source="0VMk5JdVb6VxdRbDzvIt-24" target="0VMk5JdVb6VxdRbDzvIt-28">
          <mxGeometry relative="1" as="geometry" />
        </mxCell>
        <mxCell id="0VMk5JdVb6VxdRbDzvIt-23" style="edgeStyle=orthogonalEdgeStyle;rounded=0;orthogonalLoop=1;jettySize=auto;html=1;entryX=0;entryY=0.5;entryDx=0;entryDy=0;" edge="1" parent="1" source="0VMk5JdVb6VxdRbDzvIt-24" target="0VMk5JdVb6VxdRbDzvIt-30">
          <mxGeometry relative="1" as="geometry" />
        </mxCell>
        <mxCell id="0VMk5JdVb6VxdRbDzvIt-24" value="LB" style="rounded=1;whiteSpace=wrap;html=1;rotation=-90;" vertex="1" parent="1">
          <mxGeometry x="410" y="195" width="270" height="60" as="geometry" />
        </mxCell>
        <mxCell id="0VMk5JdVb6VxdRbDzvIt-25" style="edgeStyle=orthogonalEdgeStyle;rounded=0;orthogonalLoop=1;jettySize=auto;html=1;entryX=0;entryY=0.5;entryDx=0;entryDy=0;" edge="1" parent="1" source="0VMk5JdVb6VxdRbDzvIt-26" target="0VMk5JdVb6VxdRbDzvIt-32">
          <mxGeometry relative="1" as="geometry" />
        </mxCell>
        <mxCell id="0VMk5JdVb6VxdRbDzvIt-26" value="APP Server" style="rounded=1;whiteSpace=wrap;html=1;" vertex="1" parent="1">
          <mxGeometry x="625" y="90" width="120" height="60" as="geometry" />
        </mxCell>
        <mxCell id="0VMk5JdVb6VxdRbDzvIt-27" style="edgeStyle=orthogonalEdgeStyle;rounded=0;orthogonalLoop=1;jettySize=auto;html=1;entryX=0;entryY=0.5;entryDx=0;entryDy=0;" edge="1" parent="1" source="0VMk5JdVb6VxdRbDzvIt-28" target="0VMk5JdVb6VxdRbDzvIt-32">
          <mxGeometry relative="1" as="geometry" />
        </mxCell>
        <mxCell id="0VMk5JdVb6VxdRbDzvIt-54" style="edgeStyle=orthogonalEdgeStyle;rounded=0;orthogonalLoop=1;jettySize=auto;html=1;" edge="1" parent="1" source="0VMk5JdVb6VxdRbDzvIt-28" target="0VMk5JdVb6VxdRbDzvIt-2">
          <mxGeometry relative="1" as="geometry">
            <Array as="points">
              <mxPoint x="834" y="210" />
              <mxPoint x="834" y="390" />
              <mxPoint x="725" y="390" />
            </Array>
          </mxGeometry>
        </mxCell>
        <mxCell id="0VMk5JdVb6VxdRbDzvIt-28" value="APP Server" style="rounded=1;whiteSpace=wrap;html=1;" vertex="1" parent="1">
          <mxGeometry x="625" y="180" width="120" height="60" as="geometry" />
        </mxCell>
        <mxCell id="0VMk5JdVb6VxdRbDzvIt-29" style="edgeStyle=orthogonalEdgeStyle;rounded=0;orthogonalLoop=1;jettySize=auto;html=1;entryX=0;entryY=0.5;entryDx=0;entryDy=0;" edge="1" parent="1" source="0VMk5JdVb6VxdRbDzvIt-30" target="0VMk5JdVb6VxdRbDzvIt-32">
          <mxGeometry relative="1" as="geometry" />
        </mxCell>
        <mxCell id="0VMk5JdVb6VxdRbDzvIt-30" value="APP Server" style="rounded=1;whiteSpace=wrap;html=1;" vertex="1" parent="1">
          <mxGeometry x="625" y="300" width="120" height="60" as="geometry" />
        </mxCell>
        <mxCell id="0VMk5JdVb6VxdRbDzvIt-31" value="..." style="text;html=1;strokeColor=none;fillColor=none;align=center;verticalAlign=middle;whiteSpace=wrap;rounded=0;rotation=-90;" vertex="1" parent="1">
          <mxGeometry x="665" y="260" width="40" height="20" as="geometry" />
        </mxCell>
        <mxCell id="0VMk5JdVb6VxdRbDzvIt-51" style="edgeStyle=orthogonalEdgeStyle;rounded=0;orthogonalLoop=1;jettySize=auto;html=1;" edge="1" parent="1" source="0VMk5JdVb6VxdRbDzvIt-32">
          <mxGeometry relative="1" as="geometry">
            <mxPoint x="740" y="210" as="targetPoint" />
          </mxGeometry>
        </mxCell>
        <mxCell id="0VMk5JdVb6VxdRbDzvIt-52" style="edgeStyle=orthogonalEdgeStyle;rounded=0;orthogonalLoop=1;jettySize=auto;html=1;entryX=1;entryY=0.5;entryDx=0;entryDy=0;" edge="1" parent="1" source="0VMk5JdVb6VxdRbDzvIt-32" target="0VMk5JdVb6VxdRbDzvIt-26">
          <mxGeometry relative="1" as="geometry" />
        </mxCell>
        <mxCell id="0VMk5JdVb6VxdRbDzvIt-53" style="edgeStyle=orthogonalEdgeStyle;rounded=0;orthogonalLoop=1;jettySize=auto;html=1;entryX=1;entryY=0.5;entryDx=0;entryDy=0;" edge="1" parent="1" source="0VMk5JdVb6VxdRbDzvIt-32" target="0VMk5JdVb6VxdRbDzvIt-30">
          <mxGeometry relative="1" as="geometry" />
        </mxCell>
        <mxCell id="0VMk5JdVb6VxdRbDzvIt-32" value="Timeline Cache" style="rounded=1;whiteSpace=wrap;html=1;" vertex="1" parent="1">
          <mxGeometry x="920" y="180" width="120" height="60" as="geometry" />
        </mxCell>
        <mxCell id="0VMk5JdVb6VxdRbDzvIt-33" value="" style="endArrow=none;html=1;" edge="1" parent="1">
          <mxGeometry width="50" height="50" relative="1" as="geometry">
            <mxPoint x="50" y="450" as="sourcePoint" />
            <mxPoint x="1064" y="450" as="targetPoint" />
          </mxGeometry>
        </mxCell>
        <mxCell id="0VMk5JdVb6VxdRbDzvIt-34" value="Online" style="text;html=1;strokeColor=none;fillColor=none;align=center;verticalAlign=middle;whiteSpace=wrap;rounded=0;" vertex="1" parent="1">
          <mxGeometry x="50" y="30" width="40" height="20" as="geometry" />
        </mxCell>
        <mxCell id="0VMk5JdVb6VxdRbDzvIt-35" value="Offline" style="text;html=1;strokeColor=none;fillColor=none;align=center;verticalAlign=middle;whiteSpace=wrap;rounded=0;" vertex="1" parent="1">
          <mxGeometry x="50" y="460" width="40" height="20" as="geometry" />
        </mxCell>
        <mxCell id="0VMk5JdVb6VxdRbDzvIt-36" style="edgeStyle=orthogonalEdgeStyle;rounded=0;orthogonalLoop=1;jettySize=auto;html=1;" edge="1" parent="1" source="0VMk5JdVb6VxdRbDzvIt-39" target="0VMk5JdVb6VxdRbDzvIt-2">
          <mxGeometry relative="1" as="geometry" />
        </mxCell>
        <mxCell id="0VMk5JdVb6VxdRbDzvIt-37" style="edgeStyle=orthogonalEdgeStyle;rounded=0;orthogonalLoop=1;jettySize=auto;html=1;entryX=0.433;entryY=1.033;entryDx=0;entryDy=0;entryPerimeter=0;" edge="1" parent="1" source="0VMk5JdVb6VxdRbDzvIt-39" target="0VMk5JdVb6VxdRbDzvIt-32">
          <mxGeometry relative="1" as="geometry" />
        </mxCell>
        <mxCell id="0VMk5JdVb6VxdRbDzvIt-38" style="edgeStyle=orthogonalEdgeStyle;rounded=0;orthogonalLoop=1;jettySize=auto;html=1;entryX=0.5;entryY=0;entryDx=0;entryDy=0;" edge="1" parent="1" source="0VMk5JdVb6VxdRbDzvIt-39" target="0VMk5JdVb6VxdRbDzvIt-43">
          <mxGeometry relative="1" as="geometry" />
        </mxCell>
        <mxCell id="0VMk5JdVb6VxdRbDzvIt-39" value="Timeline cache worker" style="rounded=1;whiteSpace=wrap;html=1;" vertex="1" parent="1">
          <mxGeometry x="910" y="530" width="120" height="60" as="geometry" />
        </mxCell>
        <mxCell id="0VMk5JdVb6VxdRbDzvIt-40" value="Tweet Cache" style="rounded=1;whiteSpace=wrap;html=1;" vertex="1" parent="1">
          <mxGeometry x="665" y="490" width="120" height="60" as="geometry" />
        </mxCell>
        <mxCell id="0VMk5JdVb6VxdRbDzvIt-41" value="Tweet DB" style="rounded=1;whiteSpace=wrap;html=1;" vertex="1" parent="1">
          <mxGeometry x="665" y="570" width="120" height="60" as="geometry" />
        </mxCell>
        <mxCell id="0VMk5JdVb6VxdRbDzvIt-42" style="edgeStyle=orthogonalEdgeStyle;rounded=0;orthogonalLoop=1;jettySize=auto;html=1;entryX=0.5;entryY=1;entryDx=0;entryDy=0;" edge="1" parent="1" source="0VMk5JdVb6VxdRbDzvIt-43" target="0VMk5JdVb6VxdRbDzvIt-39">
          <mxGeometry relative="1" as="geometry" />
        </mxCell>
        <mxCell id="0VMk5JdVb6VxdRbDzvIt-43" value="Ranking Component" style="rounded=1;whiteSpace=wrap;html=1;" vertex="1" parent="1">
          <mxGeometry x="910" y="660" width="120" height="60" as="geometry" />
        </mxCell>
        <mxCell id="0VMk5JdVb6VxdRbDzvIt-44" style="edgeStyle=orthogonalEdgeStyle;rounded=0;orthogonalLoop=1;jettySize=auto;html=1;entryX=0;entryY=0.5;entryDx=0;entryDy=0;" edge="1" parent="1" source="0VMk5JdVb6VxdRbDzvIt-47" target="0VMk5JdVb6VxdRbDzvIt-8">
          <mxGeometry relative="1" as="geometry" />
        </mxCell>
        <mxCell id="0VMk5JdVb6VxdRbDzvIt-45" style="edgeStyle=orthogonalEdgeStyle;rounded=0;orthogonalLoop=1;jettySize=auto;html=1;entryX=0;entryY=0.5;entryDx=0;entryDy=0;" edge="1" parent="1" source="0VMk5JdVb6VxdRbDzvIt-47" target="0VMk5JdVb6VxdRbDzvIt-6">
          <mxGeometry relative="1" as="geometry" />
        </mxCell>
        <mxCell id="0VMk5JdVb6VxdRbDzvIt-46" style="edgeStyle=orthogonalEdgeStyle;rounded=0;orthogonalLoop=1;jettySize=auto;html=1;entryX=0;entryY=0.5;entryDx=0;entryDy=0;" edge="1" parent="1" source="0VMk5JdVb6VxdRbDzvIt-47" target="0VMk5JdVb6VxdRbDzvIt-4">
          <mxGeometry relative="1" as="geometry" />
        </mxCell>
        <mxCell id="0VMk5JdVb6VxdRbDzvIt-47" value="Message Bus" style="rounded=1;whiteSpace=wrap;html=1;" vertex="1" parent="1">
          <mxGeometry x="230" y="520" width="200" height="60" as="geometry" />
        </mxCell>
        <mxCell id="0VMk5JdVb6VxdRbDzvIt-48" style="edgeStyle=orthogonalEdgeStyle;rounded=0;orthogonalLoop=1;jettySize=auto;html=1;" edge="1" parent="1" source="0VMk5JdVb6VxdRbDzvIt-50" target="0VMk5JdVb6VxdRbDzvIt-2">
          <mxGeometry relative="1" as="geometry" />
        </mxCell>
        <mxCell id="0VMk5JdVb6VxdRbDzvIt-49" value="" style="edgeStyle=orthogonalEdgeStyle;rounded=0;orthogonalLoop=1;jettySize=auto;html=1;" edge="1" parent="1" source="0VMk5JdVb6VxdRbDzvIt-50" target="0VMk5JdVb6VxdRbDzvIt-47">
          <mxGeometry relative="1" as="geometry" />
        </mxCell>
        <mxCell id="0VMk5JdVb6VxdRbDzvIt-50" value="Notification Worker" style="rounded=1;whiteSpace=wrap;html=1;" vertex="1" parent="1">
          <mxGeometry x="470" y="520" width="120" height="60" as="geometry" />
        </mxCell>
        <mxCell id="0VMk5JdVb6VxdRbDzvIt-55" value="Tweet / Like / Response" style="text;html=1;strokeColor=none;fillColor=none;align=center;verticalAlign=middle;whiteSpace=wrap;rounded=0;" vertex="1" parent="1">
          <mxGeometry x="730" y="400" width="120" height="20" as="geometry" />
        </mxCell>
      </root>
    </mxGraphModel>
  </diagram>
</mxfile>
